<?xml version="1.0" encoding="utf-8"?>
<!-- Generator: Adobe Illustrator 27.0.0, SVG Export Plug-In . SVG Version: 6.00 Build 0)  -->
<svg version="1.1"
	 id="svg3476" xmlns:sodipodi="http://sodipodi.sourceforge.net/DTD/sodipodi-0.dtd" xmlns:inkscape="http://www.inkscape.org/namespaces/inkscape" xmlns:rdf="http://www.w3.org/1999/02/22-rdf-syntax-ns#" xmlns:cc="http://creativecommons.org/ns#" xmlns:dc="http://purl.org/dc/elements/1.1/" xmlns:svg="http://www.w3.org/2000/svg" inkscape:version="0.91 r13725" sodipodi:docname="CSS3.svg"
	 xmlns="http://www.w3.org/2000/svg" xmlns:xlink="http://www.w3.org/1999/xlink" x="0px" y="0px" viewBox="0 0 310.2 429.6"
	 style="enable-background:new 0 0 310.2 429.6;" xml:space="preserve">
<style type="text/css">
	.st0{fill:#1E8AD2;}
	.st1{fill:#57B5F4;}
	.st2{fill:#ECECEC;}
	.st3{fill:#FFFFFF;}
</style>
<polygon id="polygon2989" class="st0" points="300.2,90.5 273.8,386.7 154.9,419.6 36.4,386.7 10,90.5 "/>
<polygon id="polygon2991" class="st1" points="251.1,367.8 273.7,114.7 155.1,114.7 155.1,394.4 "/>
<path id="path2999" inkscape:connector-curvature="0" d="M53.8,10h44v18.4H72.2v18.4h25.6v18.4h-44V10z"/>
<path id="path2999_00000130638601689500556920000002858145702555652493_" inkscape:connector-curvature="0" d="M150.8,65.2h-20.5
	V46.7h-3.2l0,18.5h-20.3V10l20.3,0v18.6h3.2l0-18.7h20.5"/>
<path id="path3001" inkscape:connector-curvature="0" d="M159.6,10h44v16H178v3.2h25.6V66h-44V49.2h25.6V46h-25.6V10z"/>
<path id="path3003" inkscape:connector-curvature="0" d="M212.4,10h44v16h-25.6v3.2h25.6V66h-44V49.2H238V46h-25.6V10z"/>
<path class="st2" d="M98.4,345.4l-23.8-23.8V274l-23.8-23.8l23.8-23.8v-47.6l23.8-23.8H136v37.6h-11.9l-11.9,11.9v33.8l-11.9,11.9
	l11.9,11.9v33.8l11.9,11.9H136v37.6H98.4z"/>
<path class="st3" d="M173,345.4v-37.6h11.9l11.9-11.9V262l11.9-11.9l-11.9-11.9v-33.8l-11.9-11.9H173v-37.6h37.6l23.8,23.8v47.6
	l23.8,23.8L234.4,274v47.6l-23.8,23.8H173z"/>
</svg>
